<svg width="25" height="25" viewBox="0 0 25 25" fill="none" xmlns="http://www.w3.org/2000/svg">
<path d="M12.5 0C5.60547 0 0 5.60547 0 12.5C0 19.3945 5.60547 25 12.5 25C19.3945 25 25 19.3945 25 12.5C25 5.60547 19.3945 0 12.5 0ZM12.5 23.4375C6.46973 23.4375 1.5625 18.5303 1.5625 12.5C1.5625 6.46973 6.46973 1.5625 12.5 1.5625C18.5303 1.5625 23.4375 6.46973 23.4375 12.5C23.4375 18.5303 18.5303 23.4375 12.5 23.4375ZM19.668 8.27148L11.5625 17.7441C11.4258 17.9053 11.2305 18.0029 11.0205 18.0176C11.001 18.0176 10.9863 18.0176 10.9668 18.0176C10.7764 18.0176 10.5908 17.9492 10.4492 17.8223L5.40527 13.3545C5.08301 13.0664 5.05371 12.5732 5.33691 12.251C5.625 11.9287 6.11816 11.8994 6.44043 12.1826L10.8887 16.123L18.4766 7.25098C18.7549 6.92383 19.248 6.88477 19.5801 7.16309C19.9121 7.45117 19.9463 7.94434 19.668 8.27148Z" fill="#26D16B"/>
</svg>
