<svg width="512" height="512" viewBox="0 0 512 512" fill="none" xmlns="http://www.w3.org/2000/svg">
<path d="M420.572 283.429V420.571C420.572 425.524 418.762 429.81 415.143 433.429C411.524 437.048 407.238 438.857 402.286 438.857H292.572V329.143H219.429V438.857H109.714C104.762 438.857 100.476 437.048 96.8572 433.429C93.2382 429.81 91.4287 425.524 91.4287 420.571V283.429C91.4287 283.238 91.4763 282.952 91.5715 282.571C91.6667 282.191 91.7144 281.905 91.7144 281.714L256 146.286L420.286 281.714C420.476 282.095 420.572 282.667 420.572 283.429ZM484.286 263.714L466.572 284.857C465.048 286.571 463.048 287.619 460.572 288H459.714C457.238 288 455.238 287.333 453.714 286L256 121.143L58.2858 286C56.0001 287.524 53.7144 288.191 51.4287 288C48.9525 287.619 46.9525 286.571 45.4287 284.857L27.7144 263.714C26.1906 261.81 25.5239 259.571 25.7144 257C25.9048 254.429 26.9525 252.381 28.8572 250.857L234.286 79.7143C240.381 74.762 247.619 72.2858 256 72.2858C264.381 72.2858 271.619 74.762 277.714 79.7143L347.429 138V82.2858C347.429 79.6191 348.286 77.4286 350 75.7143C351.714 74.0001 353.905 73.1429 356.572 73.1429H411.429C414.095 73.1429 416.286 74.0001 418 75.7143C419.714 77.4286 420.572 79.6191 420.572 82.2858V198.857L483.143 250.857C485.048 252.381 486.095 254.429 486.286 257C486.476 259.571 485.81 261.81 484.286 263.714Z" fill="black"/>
</svg>
