<svg width="33" height="25" viewBox="0 0 33 25" fill="none" xmlns="http://www.w3.org/2000/svg">
<path fill-rule="evenodd" clip-rule="evenodd" d="M1.47034 13.9706H19.1174V11.0294H1.47034V13.9706Z" fill="#EE2020"/>
<path fill-rule="evenodd" clip-rule="evenodd" d="M5.57763 6.31324L0.430568 11.4603C0.154876 11.7361 0 12.1101 0 12.5C0 12.8899 0.154876 13.2639 0.430568 13.5397L5.57763 18.6868L7.65704 16.6074L3.54969 12.5L7.65704 8.39265L5.57763 6.31324ZM19.9923 2.94118C16.3453 2.94118 13.1717 5.04559 11.6056 8.14559L8.98057 6.81912C11.0217 2.77941 15.1806 0 19.9923 0C26.8379 0 32.3526 5.61471 32.3526 12.5C32.3526 19.3853 26.8379 25 19.9923 25C15.1806 25 11.0217 22.2206 8.98057 18.1824L11.6056 16.8544C13.1717 19.9544 16.3467 22.0588 19.9923 22.0588C25.1762 22.0588 29.4114 17.7971 29.4114 12.5C29.4114 7.20294 25.1762 2.94118 19.9923 2.94118Z" fill="#EE2020"/>
</svg>
