<svg width="25" height="25" viewBox="0 0 25 25" fill="none" xmlns="http://www.w3.org/2000/svg">
<path d="M12.5 0C10.0277 0 7.61099 0.733112 5.55538 2.10663C3.49976 3.48015 1.89761 5.43238 0.951511 7.71645C0.00541605 10.0005 -0.242126 12.5139 0.24019 14.9386C0.722505 17.3634 1.91301 19.5907 3.66117 21.3388C5.40933 23.087 7.63661 24.2775 10.0614 24.7598C12.4861 25.2421 14.9995 24.9946 17.2835 24.0485C19.5676 23.1024 21.5199 21.5002 22.8934 19.4446C24.2669 17.389 25 14.9723 25 12.5C25 10.8585 24.6767 9.23302 24.0485 7.71645C23.4203 6.19989 22.4996 4.8219 21.3388 3.66116C20.1781 2.50043 18.8001 1.57969 17.2835 0.951506C15.767 0.323322 14.1415 0 12.5 0ZM16.5125 14.7375C16.6297 14.8537 16.7227 14.992 16.7861 15.1443C16.8496 15.2966 16.8822 15.46 16.8822 15.625C16.8822 15.79 16.8496 15.9534 16.7861 16.1057C16.7227 16.258 16.6297 16.3963 16.5125 16.5125C16.3963 16.6297 16.258 16.7226 16.1057 16.7861C15.9534 16.8496 15.79 16.8822 15.625 16.8822C15.46 16.8822 15.2966 16.8496 15.1443 16.7861C14.992 16.7226 14.8537 16.6297 14.7375 16.5125L12.5 14.2625L10.2625 16.5125C10.1463 16.6297 10.008 16.7226 9.85572 16.7861C9.7034 16.8496 9.54002 16.8822 9.375 16.8822C9.20999 16.8822 9.04661 16.8496 8.89428 16.7861C8.74196 16.7226 8.60371 16.6297 8.4875 16.5125C8.37034 16.3963 8.27735 16.258 8.21389 16.1057C8.15043 15.9534 8.11776 15.79 8.11776 15.625C8.11776 15.46 8.15043 15.2966 8.21389 15.1443C8.27735 14.992 8.37034 14.8537 8.4875 14.7375L10.7375 12.5L8.4875 10.2625C8.25212 10.0271 8.11989 9.70787 8.11989 9.375C8.11989 9.04212 8.25212 8.72288 8.4875 8.4875C8.72288 8.25212 9.04213 8.11988 9.375 8.11988C9.70788 8.11988 10.0271 8.25212 10.2625 8.4875L12.5 10.7375L14.7375 8.4875C14.9729 8.25212 15.2921 8.11988 15.625 8.11988C15.9579 8.11988 16.2771 8.25212 16.5125 8.4875C16.7479 8.72288 16.8801 9.04212 16.8801 9.375C16.8801 9.70787 16.7479 10.0271 16.5125 10.2625L14.2625 12.5L16.5125 14.7375Z" fill="#EE2020"/>
</svg>
