<svg width="22" height="25" viewBox="0 0 22 25" fill="none" xmlns="http://www.w3.org/2000/svg">
<path d="M21.1522 20.0235C21.1179 19.1402 20.8346 18.2845 20.3349 17.5553C19.8352 16.8262 19.1394 16.2531 18.328 15.9024L14.5038 14.3673L13.8437 13.2813V12.6485C14.2811 12.1651 14.6255 11.6049 14.8593 10.9962C15.0062 10.566 15.1173 10.1244 15.1913 9.67589H15.2772H15.3515C15.5224 9.67385 15.6879 9.61581 15.8226 9.51068C15.9574 9.40556 16.054 9.25914 16.0975 9.09386H16.1327L16.5233 9.13683H16.578C16.7213 9.1407 16.8607 9.0905 16.9686 8.99621C17.0823 8.89117 17.1532 8.74792 17.1678 8.59387L17.3046 6.96107C17.32 6.80031 17.2717 6.63991 17.1702 6.51431C17.0687 6.3887 16.922 6.30788 16.7616 6.2892L16.371 6.25013H16.3475C16.3214 6.13045 16.2675 6.01859 16.1901 5.92359C16.1127 5.82859 16.0141 5.75312 15.9022 5.70326V5.64858C16.3319 3.9064 15.7421 2.94547 14.9608 1.73064C14.121 0.343927 11.7812 -0.273256 8.87884 0.11346C8.53244 0.132602 8.19326 0.220118 7.88084 0.370963C7.56843 0.521808 7.28896 0.732998 7.05854 0.99236C6.92372 1.16903 6.82907 1.37299 6.7812 1.59001C6.46043 1.63693 6.16613 1.79444 5.94918 2.03532C5.16793 2.8986 5.19918 4.74624 5.35543 5.74233C5.26322 5.79744 5.18336 5.87099 5.12086 5.95836C5.05835 6.04573 5.01454 6.14506 4.99215 6.25013H4.9609L4.57028 6.2892C4.40957 6.3079 4.2625 6.38857 4.16037 6.51405C4.05824 6.63953 4.0091 6.79991 4.02341 6.96107L4.17184 8.59387C4.18196 8.67681 4.20861 8.75687 4.25021 8.82933C4.29181 8.90179 4.34751 8.96518 4.41403 9.01574C4.52291 9.10795 4.66204 9.15665 4.80465 9.15246H4.86325L5.25387 9.1134C5.29464 9.26737 5.38361 9.40425 5.50777 9.50402C5.63948 9.61526 5.80429 9.67981 5.97652 9.68761H6.04683H6.10933C6.18011 10.1355 6.29124 10.5761 6.44136 11.004C6.67366 11.6146 7.01812 12.1763 7.45698 12.6602V13.2813L6.75776 14.3868L3.12107 15.8555C2.2765 16.2234 1.55244 16.8213 1.03162 17.5812C0.510792 18.341 0.214218 19.232 0.17578 20.1524L0 24.6094C0 24.713 0.0411548 24.8123 0.114411 24.8856C0.187667 24.9588 0.287023 25 0.390622 25H20.9374C21.041 25 21.1403 24.9588 21.2136 24.8856C21.2868 24.8123 21.328 24.713 21.328 24.6094L21.1522 20.0235ZM10.3437 15.2891C9.62103 14.6954 8.84369 14.0079 8.46869 13.6173C9.08115 14.0949 9.83385 14.3575 10.6105 14.3646C11.3871 14.3716 12.1445 14.1227 12.7655 13.6563C12.3749 14.047 11.5937 14.7188 10.8866 15.2891H10.3437ZM11.664 15.6798C12.2845 15.1963 12.8742 14.6744 13.4296 14.1173L13.8202 14.7305L12.8515 16.9727C12.5087 16.4935 12.11 16.0569 11.664 15.6719V15.6798ZM15.3515 8.90637L15.0077 8.88293L15.2304 6.38295H15.3358H15.3515H15.578L15.3515 8.90637ZM16.5233 7.05091L16.4139 8.35559L16.2382 8.33606H16.1913L16.3007 7.03138L16.5233 7.05091ZM6.51948 2.56657C6.59045 2.48412 6.68079 2.42061 6.78238 2.38175C6.88398 2.34288 6.99364 2.32988 7.10151 2.34391C7.15966 2.34927 7.21826 2.34152 7.27302 2.32124C7.32778 2.30096 7.37729 2.26867 7.41792 2.22673C7.45897 2.18775 7.49107 2.14031 7.51198 2.0877C7.53289 2.03509 7.54211 1.97857 7.53901 1.92204C7.53901 1.84001 7.49995 1.09002 8.99212 0.890798C11.5507 0.547051 13.6444 1.03923 14.328 2.14079C15.0116 3.24234 15.4999 4.04312 15.1522 5.46108C15.1522 5.51186 15.1327 5.56264 15.121 5.61342C14.9475 5.6397 14.7879 5.72363 14.6679 5.8517C14.5771 5.42611 14.4354 5.01299 14.246 4.62124C13.5702 3.36344 12.5585 3.39859 11.8163 3.42594H11.6366C11.3947 3.43684 11.1535 3.4603 10.914 3.49625C10.1327 3.60172 9.06634 3.74234 8.0351 3.30875C7.97573 3.28391 7.91115 3.27412 7.8471 3.28026C7.78304 3.28639 7.72149 3.30825 7.66791 3.34391C6.91446 3.88333 6.39704 4.69162 6.22261 5.6017H6.13668C5.97652 4.62905 5.99996 3.12516 6.51948 2.56657ZM4.93747 8.35559L4.82809 7.05091L5.01168 7.03138L5.13278 8.33996C5.11852 8.33799 5.10406 8.33799 5.08981 8.33996L4.93747 8.35559ZM5.97652 8.90637L5.73824 6.4142L6.08589 6.37513L6.32808 8.87512L5.97652 8.90637ZM6.85542 9.44542L6.92183 9.37902C7.05259 9.22066 7.11574 9.01718 7.09761 8.81262L6.91401 6.80872C6.91401 6.52748 6.93745 6.24232 6.94917 5.98061C6.97993 5.62086 7.08255 5.27094 7.25097 4.95156C7.41938 4.63218 7.65015 4.34984 7.92963 4.12124C8.923 4.4262 9.97628 4.48121 10.996 4.2814C11.2499 4.24624 11.4687 4.2189 11.6366 4.21109H11.8359C12.5468 4.18765 13.1054 4.16421 13.5507 4.99233C13.9413 5.73451 14.1913 7.50013 14.2577 8.46496L14.2265 8.81652C14.211 8.96515 14.2409 9.11498 14.3124 9.24621C14.296 9.27732 14.2829 9.31005 14.2733 9.34386C14.0272 10.3673 12.5155 10.9923 11.6444 11.2384C11.5372 11.0403 11.365 10.8851 11.1569 10.7991C10.9487 10.713 10.7172 10.7012 10.5014 10.7657C10.2856 10.8302 10.0985 10.9671 9.97176 11.1533C9.84498 11.3395 9.78619 11.5637 9.80527 11.7882C9.82435 12.0126 9.92013 12.2237 10.0765 12.3858C10.2329 12.5479 10.4404 12.6513 10.664 12.6784C10.8876 12.7056 11.1138 12.6549 11.3044 12.5349C11.4951 12.415 11.6386 12.233 11.7109 12.0196C12.5547 11.8138 13.3506 11.4464 14.0546 10.9376C13.6691 11.725 13.1094 12.4143 12.4179 12.9532C11.9252 13.3528 11.3101 13.5709 10.6757 13.5709C10.0413 13.5709 9.42622 13.3528 8.93353 12.9532C8.17294 12.3692 7.57672 11.5981 7.20307 10.7149C7.04956 10.3036 6.93576 9.87847 6.86323 9.44542H6.85542ZM10.9765 11.7188C10.9765 11.7582 10.9648 11.7968 10.9429 11.8295C10.921 11.8623 10.8899 11.8878 10.8535 11.9029C10.8171 11.918 10.777 11.9219 10.7384 11.9142C10.6998 11.9065 10.6643 11.8876 10.6364 11.8597C10.6085 11.8319 10.5896 11.7964 10.5819 11.7577C10.5742 11.7191 10.5781 11.679 10.5932 11.6426C10.6083 11.6062 10.6338 11.5751 10.6666 11.5532C10.6993 11.5313 10.7379 11.5196 10.7773 11.5196C10.8301 11.5196 10.8808 11.5406 10.9181 11.578C10.9555 11.6153 10.9765 11.666 10.9765 11.7188ZM7.85151 14.1095C8.38209 14.6505 8.94706 15.1568 9.5429 15.6251C9.0977 15.957 8.70298 16.3517 8.37103 16.7969L7.45307 14.711L7.85151 14.1095ZM0.949212 20.1914C0.976884 19.3422 1.26914 18.5228 1.78514 17.8477C2.21023 17.289 2.77089 16.848 3.41404 16.5665L6.80855 15.1915L7.76948 17.3672C7.79302 17.4743 7.84673 17.5724 7.92426 17.65C8.00179 17.7275 8.09989 17.7812 8.20697 17.8047C8.24985 17.8086 8.293 17.8086 8.33588 17.8047C8.43775 17.8045 8.53781 17.7777 8.62617 17.7271C8.71454 17.6764 8.78817 17.6035 8.83978 17.5157C8.95533 17.332 9.08599 17.1582 9.2304 16.9962L9.77727 17.5938L9.1015 24.2188H0.796869L0.949212 20.1914ZM9.88274 24.2188L10.5351 17.5196C10.5407 17.4654 10.5349 17.4107 10.5181 17.3589C10.5012 17.3071 10.4738 17.2594 10.4374 17.2188L9.76556 16.4688C9.93146 16.3292 10.1049 16.1988 10.2851 16.0782H10.9257C11.0273 16.1602 11.1913 16.2969 11.3788 16.4688L10.7851 17.2227C10.7223 17.3023 10.6929 17.4031 10.703 17.504L11.3788 24.2188H9.88274ZM12.1484 24.2188L11.496 17.5782L11.9218 17.0391C12.0946 17.2455 12.2513 17.4649 12.3905 17.6954C12.4411 17.7845 12.5143 17.8585 12.6029 17.91C12.6914 17.9615 12.792 17.9885 12.8944 17.9883C12.9327 17.9848 12.9705 17.9783 13.0077 17.9688C13.1153 17.945 13.2138 17.8907 13.2913 17.8124C13.3689 17.7341 13.4223 17.6352 13.4452 17.5274L14.4296 15.1837L18.0116 16.6212C18.6112 16.879 19.1373 17.2816 19.5428 17.793C20.04 18.4364 20.324 19.2188 20.3553 20.0313L20.5311 24.2188H12.1484Z" fill="black"/>
</svg>
