<svg width="30" height="30" viewBox="0 0 30 30" fill="none" xmlns="http://www.w3.org/2000/svg">
<g clip-path="url(#clip0_192_12)">
<path d="M18.75 1.25H11.25V3.75H18.75V1.25ZM13.75 17.5H16.25V10H13.75V17.5ZM23.7812 9.23125L25.5625 7.45C25.025 6.80625 24.4375 6.21875 23.7937 5.68125L22.0125 7.4625C20.022 5.86571 17.5456 4.99689 14.9937 5C8.775 5 3.75 10.0375 3.75 16.25C3.75 22.4625 8.775 27.5 14.9937 27.5C21.2125 27.5 26.25 22.4625 26.25 16.25C26.25 13.5938 25.325 11.1563 23.7812 9.23125ZM15 25C10.1687 25 6.25 21.0813 6.25 16.25C6.25 11.4187 10.1687 7.5 15 7.5C19.8313 7.5 23.75 11.4187 23.75 16.25C23.75 21.0813 19.8313 25 15 25Z" fill="#E29829"/>
</g>
<defs>
<clipPath id="clip0_192_12">
<rect width="30" height="30" fill="white"/>
</clipPath>
</defs>
</svg>
